<svg xmlns="http://www.w3.org/2000/svg" xmlns:xlink="http://www.w3.org/1999/xlink" width="378" height="373" version="1.1" viewBox="0 0 378 373"><title>Pabot</title><g id="pabot" fill="none" fill-rule="evenodd" stroke="none" stroke-width="1"><circle id="Oval" cx="269.5" cy="90.5" r="62.5" fill="#000" fill-rule="nonzero"/><circle id="Oval" cx="251.5" cy="301.5" r="62.5" fill="#000" fill-rule="nonzero"/><circle id="Oval" cx="92.5" cy="228.5" r="62.5" fill="#000" fill-rule="nonzero"/><circle id="Oval" cx="189.5" cy="187.5" r="91.5" fill="#000" fill-rule="nonzero"/><g id="Group" fill="#FFF" fill-rule="nonzero" stroke="#FFF" stroke-width="8" transform="translate(149.000000, 148.000000)"><rect id="Rectangle" width="80" height="80" x="0" y="0" rx="8"/></g><path id="Line-2" fill-rule="nonzero" stroke="#000" stroke-linecap="round" stroke-width="8" d="M182.269231,163.3 L182.269231,168.15"/><path id="Line-2" fill-rule="nonzero" stroke="#000" stroke-linecap="round" stroke-width="8" d="M211.269231,163.3 L211.269231,168.15" transform="translate(211.000000, 166.000000) scale(-1, 1) translate(-211.000000, -166.000000)"/><g id="Group" fill-rule="nonzero" stroke-width="8" transform="translate(69.000000, 206.000000)"><rect id="Rectangle" width="44" height="44" x="0" y="0" fill="#FFF" stroke="#FFF" rx="8"/><path id="Line" stroke="#000" stroke-linecap="round" d="M4,36.5 L33,36.5"/><path id="Line-2" stroke="#000" stroke-linecap="round" d="M4.26923077,17.3 L4.26923077,22.15"/><path id="Line-2" stroke="#000" stroke-linecap="round" d="M33.2692308,17.3 L33.2692308,22.15" transform="translate(33.000000, 20.000000) scale(-1, 1) translate(-33.000000, -20.000000)"/></g><g id="Group" fill-rule="nonzero" stroke-width="8" transform="translate(229.000000, 279.000000)"><rect id="Rectangle" width="44" height="44" x="0" y="0" fill="#FFF" stroke="#FFF" rx="8"/><path id="Line" stroke="#000" stroke-linecap="round" d="M7,31.5 L36,31.5"/><path id="Line-2" stroke="#000" stroke-linecap="round" d="M7.26923077,12.3 L7.26923077,18"/><path id="Line-2" stroke="#000" stroke-linecap="round" d="M36.2692308,12.3 L36.2692308,18" transform="translate(36.000000, 15.000000) scale(-1, 1) translate(-36.000000, -15.000000)"/></g><g id="Group" fill-rule="nonzero" stroke-width="8" transform="translate(247.000000, 68.000000)"><rect id="Rectangle" width="44" height="44" x="0" y="0" fill="#FFF" stroke="#FFF" rx="8"/><path id="Line" stroke="#000" stroke-linecap="round" d="M9,27.5 L38,27.5"/><path id="Line-2" stroke="#000" stroke-linecap="round" d="M9.26923077,7.3 L9.26923077,13"/><path id="Line-2" stroke="#000" stroke-linecap="round" d="M38.2692308,7.3 L38.2692308,13" transform="translate(38.000000, 10.000000) scale(-1, 1) translate(-38.000000, -10.000000)"/></g><path id="Line-3" fill-rule="nonzero" stroke="#FFF" stroke-linecap="round" stroke-width="8" d="M110,233 L149,218"/><path id="Line-4" fill-rule="nonzero" stroke="#FFF" stroke-linecap="round" stroke-width="8" d="M220.5,158.5 L255,108"/><path id="Line-5" fill-rule="nonzero" stroke="#FFF" stroke-linecap="square" stroke-width="8" d="M215,223 L243,279"/><path id="Line" fill-rule="nonzero" stroke="#000" stroke-linecap="round" stroke-width="8" d="M182.269231,218 L211,217.5"/></g></svg>